<svg width="24" height="24" fill="none" xmlns="http://www.w3.org/2000/svg"><g clip-path="url(#a)" stroke="#2C2D35" stroke-width="2" stroke-linecap="round" stroke-linejoin="round"><path d="M9.25 21.167a.917.917 0 1 0 0-1.834.917.917 0 0 0 0 1.834Zm10.083 0a.917.917 0 1 0 0-1.834.917.917 0 0 0 0 1.834ZM1.917 1.917h3.666L8.04 14.19a1.833 1.833 0 0 0 1.833 1.476h8.91a1.833 1.833 0 0 0 1.834-1.476l1.466-7.69H6.5"/></g><defs><clipPath id="a"><path fill="#fff" transform="translate(1 1)" d="M0 0h22v22H0z"/></clipPath></defs></svg>