<svg width="15" height="14" viewBox="0 0 15 14" fill="none" xmlns="http://www.w3.org/2000/svg">
<path d="M8.33333 1.16667C8.33333 0.706429 7.96024 0.333333 7.5 0.333333C7.03976 0.333333 6.66667 0.706429 6.66667 1.16667V6.16667H1.66667C1.20643 6.16667 0.833333 6.53976 0.833333 7C0.833333 7.46024 1.20643 7.83333 1.66667 7.83333H6.66667V12.8333C6.66667 13.2936 7.03976 13.6667 7.5 13.6667C7.96024 13.6667 8.33333 13.2936 8.33333 12.8333V7.83333H13.3333C13.7936 7.83333 14.1667 7.46024 14.1667 7C14.1667 6.53976 13.7936 6.16667 13.3333 6.16667H8.33333V1.16667Z" fill="#2E3238"/>
</svg>
