<svg width="21" height="20" viewBox="0 0 21 20" fill="none" xmlns="http://www.w3.org/2000/svg">
<path fill-rule="evenodd" clip-rule="evenodd" d="M14.3481 15.0265C13.065 16.0529 11.4375 16.6667 9.66667 16.6667C5.52453 16.6667 2.16667 13.3088 2.16667 9.16667C2.16667 5.02453 5.52453 1.66667 9.66667 1.66667C13.8088 1.66667 17.1667 5.02453 17.1667 9.16667C17.1667 10.9375 16.553 12.565 15.5266 13.848L18.5892 16.9107C18.9147 17.2361 18.9147 17.7637 18.5892 18.0892C18.2638 18.4146 17.7362 18.4146 17.4107 18.0892L14.3481 15.0265ZM3.83333 9.16667C3.83333 5.94501 6.44501 3.33333 9.66667 3.33333C12.8883 3.33333 15.5 5.94501 15.5 9.16667C15.5 10.7381 14.8786 12.1644 13.8681 13.2133C13.8395 13.2353 13.812 13.2594 13.7857 13.2857C13.7595 13.3119 13.7354 13.3394 13.7134 13.3681C12.6645 14.3786 11.2382 15 9.66667 15C6.44501 15 3.83333 12.3883 3.83333 9.16667Z" fill="#2E3238"/>
</svg>
