<svg width="143" height="35" fill="none" xmlns="http://www.w3.org/2000/svg"><path d="m17.5 0 2.465 9.104 6.996-6.326-2.848 8.992 9.306-1.54-7.258 6.025 8.66 3.736-9.362 1.144 5.267 7.825-8.495-4.099.2 9.43L17.5 26.25l-4.93 8.041.2-9.43-8.496 4.1 5.267-7.826L.178 19.99l8.661-3.735-7.258-6.025 9.306 1.54L8.04 2.778l6.996 6.326L17.5 0Zm26.98 25V10.8h2.76V25h-2.76Zm15.203 0h-2.68v-5.88c0-.84-.147-1.453-.44-1.84-.294-.387-.7-.58-1.22-.58-.36 0-.727.093-1.1.28a3.38 3.38 0 0 0-.98.78c-.294.32-.507.693-.64 1.12V25h-2.68V14.52h2.42v1.94c.386-.653.946-1.167 1.68-1.54.733-.387 1.56-.58 2.48-.58.653 0 1.186.12 1.6.36.413.227.733.54.96.94a3.8 3.8 0 0 1 .46 1.32c.093.493.14.993.14 1.5V25Zm9.49 0-3.06-4.52-1.42 1.4V25h-2.68V10.4h2.68v8.84l4.22-4.7h2.84l-3.9 4.44 4.18 6.02h-2.86Zm3.932 0v-2.88h2.2V25h-2.2Zm21.557-14.2V25h-2.74v-6.06h-6.44V25h-2.76V10.8h2.76v5.74h6.44V10.8h2.74Zm7.367 14.4c-1.147 0-2.134-.247-2.96-.74a5.204 5.204 0 0 1-1.88-2 5.617 5.617 0 0 1-.66-2.68c0-.973.22-1.873.66-2.7a5.208 5.208 0 0 1 1.9-1.98c.826-.507 1.806-.76 2.94-.76 1.133 0 2.106.253 2.92.76a5.023 5.023 0 0 1 1.9 1.98c.44.827.66 1.727.66 2.7 0 .96-.22 1.853-.66 2.68a5.164 5.164 0 0 1-1.9 2c-.814.493-1.787.74-2.92.74Zm-2.74-5.42c0 .613.12 1.16.36 1.64a2.8 2.8 0 0 0 .98 1.1c.413.267.88.4 1.4.4.506 0 .966-.133 1.38-.4.413-.28.74-.653.98-1.12.253-.48.38-1.027.38-1.64 0-.6-.127-1.133-.38-1.6a2.777 2.777 0 0 0-.98-1.12 2.41 2.41 0 0 0-1.38-.42c-.52 0-.987.14-1.4.42a2.77 2.77 0 0 0-.98 1.12c-.24.467-.36 1.007-.36 1.62Zm9.929 1.3v-6.56h2.68v5.98c0 1.613.58 2.42 1.74 2.42.52 0 1.02-.153 1.5-.46.493-.32.893-.8 1.2-1.44v-6.5h2.68V22c0 .293.046.5.14.62.093.107.26.173.5.2V25a5.622 5.622 0 0 1-1.16.12c-.48 0-.874-.107-1.18-.32a1.344 1.344 0 0 1-.52-.92l-.06-.84a4.47 4.47 0 0 1-1.8 1.62c-.734.36-1.54.54-2.42.54-1.08 0-1.9-.347-2.46-1.04-.56-.707-.84-1.733-.84-3.08Zm16.323 4.12a7.488 7.488 0 0 1-2.56-.44 5.761 5.761 0 0 1-2.1-1.3l.96-1.74c.627.507 1.24.88 1.84 1.12.6.24 1.187.36 1.76.36.52 0 .933-.093 1.24-.28a.912.912 0 0 0 .48-.84c0-.387-.193-.647-.58-.78a28.408 28.408 0 0 0-1.62-.54c-.773-.24-1.42-.487-1.94-.74s-.913-.56-1.18-.92c-.253-.36-.38-.827-.38-1.4 0-1.027.387-1.847 1.16-2.46.773-.613 1.8-.92 3.08-.92.747 0 1.453.12 2.12.36a4.93 4.93 0 0 1 1.82 1.12l-1.08 1.7c-1.027-.8-2.02-1.2-2.98-1.2a2.6 2.6 0 0 0-1.14.24c-.32.16-.48.44-.48.84 0 .373.153.64.46.8.32.16.8.333 1.44.52.827.253 1.527.5 2.1.74.587.24 1.027.547 1.32.92.307.373.46.88.46 1.52 0 1.04-.38 1.853-1.14 2.44-.76.587-1.78.88-3.06.88Zm10.883 0c-1.134 0-2.114-.247-2.94-.74a5.244 5.244 0 0 1-1.9-1.96 5.478 5.478 0 0 1-.68-2.68c0-.987.22-1.893.66-2.72a5.12 5.12 0 0 1 1.92-2c.826-.507 1.813-.76 2.96-.76 1.146 0 2.126.253 2.94.76a4.923 4.923 0 0 1 1.86 1.98c.44.813.66 1.693.66 2.64 0 .347-.02.647-.06.9h-8.1c.066.813.366 1.453.9 1.92a2.81 2.81 0 0 0 1.88.7c.533 0 1.033-.127 1.5-.38.48-.267.806-.613.98-1.04l2.3.64c-.387.8-1.007 1.46-1.86 1.98-.854.507-1.86.76-3.02.76Zm-2.74-6.28h5.48c-.08-.787-.38-1.42-.9-1.9-.507-.493-1.127-.74-1.86-.74-.72 0-1.34.247-1.86.74-.507.48-.794 1.113-.86 1.9Z" fill="#598D66"/></svg>